<?xml version="1.0" encoding="utf-8"?>
<!-- Generator: Adobe Illustrator 25.2.1, SVG Export Plug-In . SVG Version: 6.00 Build 0)  -->
<svg version="1.1" id="Layer_1" xmlns="http://www.w3.org/2000/svg" xmlns:xlink="http://www.w3.org/1999/xlink" x="0px" y="0px"
	 viewBox="0 0 600 600" style="enable-background:new 0 0 600 600;" xml:space="preserve">
<g>
	<g>
		<path d="M260.2,286.2c0,0,39.1-2.9,39.1-48.7s-32-68.2-72.5-68.2h-74.6H150H93.5v256.1H150h2.2h74.6c0,0,81.4,2.6,81.4-75.6
			C308.1,349.8,311.7,286.2,260.2,286.2z M152.2,214.7h65h9.6c0,0,18.1,0,18.1,26.6s-10.7,30.5-22.7,30.5h-69.9v-57.1H152.2z
			 M223.3,379.8h-71.1v-68.5h74.6c0,0,27-0.3,27,35.2C253.8,376.2,234,379.5,223.3,379.8z"/>
		<rect x="361.6" y="184.3" width="105.7" height="31.5"/>
		<path d="M416.7,234.4c-98.5,0-98.4,98.4-98.4,98.4s-6.8,97.9,98.4,97.9c0,0,87.6,5,87.6-68.1h-45.1c0,0,1.5,27.6-41.1,27.6
			c0,0-45.1,3-45.1-44.6h132.7C505.8,345.6,520.3,234.4,416.7,234.4z M456.7,311.4h-84.1c0,0,5.5-39.5,45.1-39.5
			C457.2,271.9,456.7,311.4,456.7,311.4z"/>
	</g>
</g>
</svg>
