<?xml version="1.0" encoding="utf-8"?>
<!-- Generator: Adobe Illustrator 25.2.0, SVG Export Plug-In . SVG Version: 6.00 Build 0)  -->
<svg version="1.1" id="Layer_1" xmlns="http://www.w3.org/2000/svg" xmlns:xlink="http://www.w3.org/1999/xlink" x="0px" y="0px"
	 viewBox="0 0 600 600" style="enable-background:new 0 0 600 600;" xml:space="preserve">
<path d="M455,39.5l-8.9,102.9c-51.1,3.4-104.8,10.8-163.7,23.9L437,247.5l-7.5,86.6c-41.6,3.5-85.1,9.7-131.8,19.5L420.8,435
	l-7.5,87.1c-58.8,6.5-121.7,18.6-192.5,38.5l-13.8-84.2c32.9-9.3,64.2-17,94.1-23.2l-109.8-72.5l0,0l-13.8-84.1
	c40.6-12.1,78.7-21.6,114.8-29.1l-130.5-68.5c-0.1,0-16.7-99.6-16.7-99.6C266,60.7,364.1,43.9,455,39.5z"/>
</svg>
