<?xml version="1.0" encoding="utf-8"?>
<!-- Generator: Adobe Illustrator 25.2.1, SVG Export Plug-In . SVG Version: 6.00 Build 0)  -->
<svg version="1.1" id="Layer_1" xmlns="http://www.w3.org/2000/svg" xmlns:xlink="http://www.w3.org/1999/xlink" x="0px" y="0px"
	 viewBox="0 0 350 612" style="enable-background:new 0 0 350 612;" xml:space="preserve">
<style type="text/css">
	.st0{fill:#FFFFFF;}
	.st1{fill:#AFAFAF;}
</style>
<g>
	<path class="st0" d="M244.3,279.5l-3.5,40.3l-0.3,3.5c-21.1,1.8-43,4.9-66.7,9.9c-17,3.6-34.9,8.1-53.8,13.6l0,0l-7-42.5
		c20.6-6.1,39.8-11,58.1-14.7C197.2,284.2,221.2,281,244.3,279.5z"/>
	<path class="st0" d="M236.1,374.3l-3.5,40.5l-0.3,3.5c-29.7,3.3-61.6,9.4-97.4,19.4l-7-42.6c16.7-4.7,32.4-8.6,47.6-11.7
		C196.9,379,216.9,376,236.1,374.3L236.1,374.3z"/>
	<path class="st0" d="M253.4,174.3l-0.4,4.5l-3.8,43.7l-0.3,3.9c-25.9,1.7-53,5.5-82.8,12.1c-19.1,4.2-39.4,9.7-61,16.5l0,0
		l-0.2-0.1l-8.3-50.3C157.8,185,207.4,176.5,253.4,174.3z"/>
	<path class="st1" d="M244.3,279.5c-23.1,1.5-47.1,4.7-73.2,10.1l-66-34.7c21.7-6.8,41.9-12.2,61-16.5L244.3,279.5z"/>
	<path class="st1" d="M236.1,374.2c0,0-39.2,4.8-60.6,9.2L120,346.8c19-5.6,36.8-10.1,53.8-13.6L236.1,374.2z"/>
</g>
</svg>
