<?xml version="1.0" encoding="utf-8"?>
<!-- Generator: Adobe Illustrator 25.2.1, SVG Export Plug-In . SVG Version: 6.00 Build 0)  -->
<svg version="1.1" id="Layer_1" xmlns="http://www.w3.org/2000/svg" xmlns:xlink="http://www.w3.org/1999/xlink" x="0px" y="0px"
	 viewBox="0 0 600 600" style="enable-background:new 0 0 600 600;" xml:space="preserve">
<path d="M300,406.2c57.8-0.1,105.5-47.8,105.5-105.7c0.1-59-46.9-106.1-105.8-106.1C241,194.4,194,241.3,194,300
	S241.5,406.3,300,406.2z M299.8,230.6c38.7,0,70,31.1,69.9,69.6c0,38.5-31.2,69.4-70,69.4c-39,0-69.6-30.6-69.6-69.5
	C230,261.2,260.8,230.6,299.8,230.6z"/>
<path d="M410,212.8c12.9-0.2,23.8-11.2,23.7-24.1c-0.1-12.9-11.1-23.9-23.9-23.9c-12.9,0-23.5,10.9-23.5,24.1
	C386.3,202,397.1,212.9,410,212.8z"/>
<path d="M93.5,361c0.4,17.5,0.5,35,4,52.2c7,34.8,24.8,61.7,56.7,78.4c21.3,11.1,44.5,13.6,68,14.4c39,1.5,77.9,1.2,116.9,0.9
	c21.5-0.2,43-0.2,64.3-2.9c55.5-7,91.1-41.9,99.5-97.2c3.8-24.6,2.9-49.4,3.5-74.1c0.7-34.6,0.2-69.3-0.7-103.9
	c-0.3-13-1.2-25.9-3.2-38.8c-7.6-48.5-41.3-83.3-89.6-92.4c-24.5-4.6-49.3-3.9-74.1-4.5c-39-0.8-77.9-0.4-116.9,0.9
	c-10.9,0.3-21.8,1.1-32.6,3c-33.3,5.8-59.9,22-77.6,51.3C99,169.4,95.2,192.9,94.1,217c-1.3,27.5-0.9,55.1-0.8,82.6
	C93.4,320.2,93,340.6,93.5,361z M129.6,231.5c0.1-13.6,0.6-27.4,3.8-40.8c7.7-32.2,29.3-52.3,62-57.7c12.7-2.1,25.5-2.9,38.3-3
	c44-0.2,88-0.2,132,0c12.1,0.1,24.2,0.8,36.2,2.7c37.1,5.8,59.5,27.9,65.5,65c2.2,13.4,2.7,26.9,2.9,40.4c0.4,41.2,0.4,82.5,0,123.7
	c-0.1,14.5-0.6,29.1-3.3,43.5c-6.9,36.3-31,58.7-67.7,62.8c-11.7,1.3-23.5,2.1-35.2,2.2c-21.5,0.1-43,0-64.4,0
	c-29.4,0.3-58.9,0.7-88.3-1.1c-17.3-1-34-4.5-48.7-14.6C144,441.7,135,423,131.8,401.3c-1.7-11.3-2.3-22.8-2.3-34.2
	C129.4,321.9,129.3,276.7,129.6,231.5z"/>
</svg>
