<?xml version="1.0" encoding="utf-8"?>
<!-- Generator: Adobe Illustrator 25.1.0, SVG Export Plug-In . SVG Version: 6.00 Build 0)  -->
<svg version="1.1" id="Layer_1" xmlns="http://www.w3.org/2000/svg" xmlns:xlink="http://www.w3.org/1999/xlink" x="0px" y="0px"
	 viewBox="0 0 500 500" style="enable-background:new 0 0 500 500;" xml:space="preserve">
<style type="text/css">
	.st0{fill-rule:evenodd;clip-rule:evenodd;fill:#0A1F2C;}
</style>
<path class="st0" d="M443.12,1.46H56.75c-30.48,0-55.2,24.71-55.2,55.2v386.37c0,30.48,24.71,55.2,55.2,55.2h386.37
	c30.48,0,55.2-24.71,55.2-55.2V56.65C498.32,26.17,473.6,1.46,443.12,1.46z M151.75,429.22H77.68V190.04h74.08V429.22z
	 M114.36,158.72c-24.2,0-43.81-19.76-43.81-44.14s19.61-44.14,43.81-44.14c24.2,0,43.8,19.76,43.8,44.14
	S138.56,158.72,114.36,158.72z M429.32,429.22h-73.72V303.67c0-34.42-13.08-53.66-40.33-53.66c-29.64,0-45.13,20.02-45.13,53.66
	v125.56h-71.04V190.04h71.04v32.22c0,0,21.36-39.52,72.12-39.52c50.73,0,87.05,30.98,87.05,95.05V429.22z"/>
</svg>
